<?xml version="1.0" encoding="UTF-8" standalone="no"?>
<svg
   height="256"
   viewBox="0 0 30 25.5"
   width="256"
   version="1.1"
   id="svg70"
   sodipodi:docname="logo.svg"
   inkscape:version="1.2.2 (b0a8486541, 2022-12-01)"
   xmlns:inkscape="http://www.inkscape.org/namespaces/inkscape"
   xmlns:sodipodi="http://sodipodi.sourceforge.net/DTD/sodipodi-0.dtd"
   xmlns="http://www.w3.org/2000/svg"
   xmlns:svg="http://www.w3.org/2000/svg">
  <defs
     id="defs74" />
  <sodipodi:namedview
     id="namedview72"
     pagecolor="#ffffff"
     bordercolor="#000000"
     borderopacity="0.25"
     inkscape:showpageshadow="2"
     inkscape:pageopacity="0.0"
     inkscape:pagecheckerboard="0"
     inkscape:deskcolor="#d1d1d1"
     showgrid="false"
     inkscape:zoom="2.0058594"
     inkscape:cx="255.75073"
     inkscape:cy="256.49854"
     inkscape:window-width="3440"
     inkscape:window-height="1371"
     inkscape:window-x="0"
     inkscape:window-y="0"
     inkscape:window-maximized="1"
     inkscape:current-layer="svg70" />
  <g
     id="Page-1"
     fill="none"
     fill-rule="evenodd"
     transform="matrix(0.50007647,0,0,0.50007647,-1.5542417e-4,0)">
    <g
       id="023---Unicorn">
      <path
         id="Path"
         d="m 55.99,9.01 c -0.908168,1.382347 -2.22657,2.445462 -3.77,3.04 C 48.96,13.21 45.71,11.43 45,10 44.358721,8.4365391 43.390386,7.0283609 42.16,5.87 43.02,2.89 47.35,2.4 50.12,4.04 50.922532,4.4984097 51.575412,5.1790725 52,6 c 0.43361,0.9929153 1.094758,1.8698778 1.93,2.56 0.556135,0.5088495 1.342336,0.6805923 2.06,0.45 z"
         fill="#e91e63" />
      <path
         id="path3"
         d="M 53.93,8.56 C 53.094758,7.8698778 52.43361,6.9929153 52,6 51.575412,5.1790725 50.922532,4.4984097 50.12,4.04 48.618699,3.1784826 46.849494,2.9095349 45.16,3.286 45.849174,3.4318388 46.51077,3.6863506 47.12,4.04 47.922532,4.4984097 48.575412,5.1790725 49,6 c 0.43361,0.9929153 1.094758,1.8698778 1.93,2.56 0.556135,0.5088495 1.342336,0.6805923 2.06,0.45 -0.908168,1.382347 -2.22657,2.445462 -3.77,3.04 -0.226117,0.0794 -0.456472,0.146168 -0.69,0.2 1.224005,0.285451 2.504018,0.216073 3.69,-0.2 1.54343,-0.594538 2.861832,-1.657653 3.77,-3.04 -0.717664,0.2305923 -1.503865,0.05885 -2.06,-0.45 z"
         fill="#ad1457" />
      <path
         id="path5"
         d="M 38.37,8.83 C 36.26,8.86 32.97,9.84 34,16 c 1,6 -1,9 -4,9 0,0 -4.78,0.53 -7.37,-3.05 C 21.463106,20.19258 20.891696,18.10676 21,16 c 0,0 4,4 6,-1 1.91,-4.77 5.63,-13.17 12.04,-9.6 -0.62,0.66 -0.75,2.03 -0.67,3.43 z"
         fill="#ffdc00" />
      <path
         id="path7"
         d="M 39.04,5.4 C 37.707121,4.559117 36.07707,4.3318206 34.565,4.776 35.078484,4.9281045 35.573254,5.1374173 36.04,5.4 35.42,6.06 35.29,7.43 35.37,8.83 33.26,8.86 29.97,9.84 31,16 c 0.906,5.435 -0.654,8.4 -3.185,8.912 0.72237,0.114844 1.455734,0.14438 2.185,0.088 3,0 5,-3 4,-9 -1.03,-6.16 2.26,-7.14 4.37,-7.17 -0.08,-1.4 0.05,-2.77 0.67,-3.43 z"
         fill="#fec108" />
      <path
         id="path9"
         d="m 28,28 c 1.141765,-0.585549 1.898634,-1.720852 2,-3 3,0 5,-3 4,-9 -1.03,-6.16 2.26,-7.14 4.37,-7.17 0.02,0.41 0.06,0.83 0.1,1.22 0.08901,0.699807 0.267121,1.385364 0.53,2.04 0.04,3.16 1.88,16.9 -11,15.91 z"
         fill="#02a9f4" />
      <path
         id="path11"
         d="m 39,12.09 c -0.262879,-0.654636 -0.440989,-1.340193 -0.53,-2.04 -0.04,-0.39 -0.08,-0.81 -0.1,-1.22 -1.046293,-0.019275 -2.071407,0.2960366 -2.926,0.9 0.01,0.107 0.015,0.22 0.026,0.323 0.08926,0.698788 0.267367,1.383321 0.53,2.037 0.036,2.875 1.559,14.5 -7.866,15.833 C 28.056,27.969 28,28 28,28 40.88,28.99 39.04,15.25 39,12.09 Z"
         fill="#0377bc" />
      <path
         id="path13"
         d="m 54.19,31 c -2.973242,1.559784 -6.460151,1.816867 -9.63,0.71 -0.603327,2.227742 -1.565964,4.342166 -2.85,6.26 0.7,0.91 1.94,2.44 3.84,4.48 l -4.23,4.23 C 39.862222,45.358605 38.483188,43.952858 37.19,42.47 34.442781,44.200221 31.245677,45.080381 28,45 c -2.514164,0.05632 -5.012912,-0.406662 -7.34,-1.36 -1.250813,1.419345 -2.579528,2.768091 -3.98,4.04 l -4.23,-4.23 c 1.47,-1.58 2.54,-2.85 3.28,-3.76 -1.04961,-1.542103 -1.68024,-3.330609 -1.83,-5.19 -0.146606,-1.721065 0.07848,-3.453535 0.66,-5.08 v -0.01 c 0.454071,-1.290035 1.123556,-2.493756 1.98,-3.56 0.14,-0.18 0.3,-0.36 0.46,-0.54 1.479969,-1.680175 3.448635,-2.855081 5.63,-3.36 C 25.22,25.53 30,25 30,25 29.898634,26.279148 29.141765,27.414451 28,28 40.88,28.99 39.04,15.25 39,12.09 38.737121,11.435364 38.559011,10.749807 38.47,10.05 38.43,9.66 38.39,9.24 38.37,8.83 38.29,7.43 38.42,6.06 39.04,5.4 39.288309,5.1358566 39.637598,4.9903195 40,5 c 0.799334,0.029662 1.563257,0.3373535 2.16,0.87 1.230386,1.1583609 2.198721,2.5665391 2.84,4.13 0.71,1.43 3.96,3.21 7.22,2.05 1.26,1.24 2.72,2.68 4,3.95 3.03,3 5.06,11 -2.03,15 z"
         fill="#f5f5f5" />
      <path
         id="path15"
         d="m 39.16,5.87 c 1.230386,1.1583609 2.198721,2.5665391 2.84,4.13 0.66,1.329 3.514,2.957 6.53,2.25 C 47.09867,12.005137 45.826278,11.194122 45,10 44.358721,8.4365391 43.390386,7.0283609 42.16,5.87 41.563257,5.3373534 40.799334,5.0296625 40,5 39.637598,4.99032 39.288309,5.1358565 39.04,5.4 c -0.06988,0.077053 -0.132481,0.160409 -0.187,0.249 0.103,0.072 0.208,0.14 0.307,0.221 z"
         fill="#cfd8dc" />
      <path
         id="path17"
         d="m 56.22,16 c -1.28,-1.27 -2.74,-2.71 -4,-3.95 -0.84717,0.29888 -1.747136,0.418739 -2.643,0.352 1.175,1.157 2.48,2.444 3.643,3.6 3.03,3 5.06,11 -2.03,15 -1.19802,0.67385 -2.515949,1.107612 -3.88,1.277 2.371181,0.323741 4.783584,-0.124727 6.88,-1.279 7.09,-4 5.06,-12 2.03,-15 z"
         fill="#cfd8dc" />
      <path
         id="path19"
         d="m 16.54,25.85 c -0.856444,1.066244 -1.525929,2.269965 -1.98,3.56 v 0.01 C 13.978478,31.046465 13.753394,32.778935 13.9,34.5 6.46,37.54 1,32.77 1,28 0.9825866,25.055219 2.050586,22.207221 4,20 c 0,3 3,3 8,3 1.973579,-0.144374 3.812219,1.009838 4.54,2.85 z"
         fill="#e91e63" />
      <path
         id="path21"
         d="M 12,23 C 7,23 4,23 4,20 3.357179,20.70541 2.8138146,21.495392 2.385,22.348 3.73,23 6,23 9,23 c 1.973579,-0.144374 3.812219,1.009838 4.54,2.85 -0.856444,1.066244 -1.525929,2.269965 -1.98,3.56 v 0.01 c -0.581522,1.626465 -0.806606,3.358935 -0.66,5.08 -0.9750495,0.401497 -1.9962037,0.680299 -3.04,0.83 2.0513518,0.283457 4.141146,-0.0037 6.04,-0.83 -0.146606,-1.721065 0.07848,-3.453535 0.66,-5.08 v -0.01 c 0.454071,-1.290035 1.123556,-2.493756 1.98,-3.56 C 15.812219,24.009838 13.973579,22.855626 12,23 Z"
         fill="#ad1457" />
      <path
         id="path23"
         d="M 56,2 C 55.869032,4.3252902 55.157349,6.5806717 53.93,8.56 53.094758,7.8698778 52.43361,6.9929153 52,6 51.575412,5.1790725 50.922532,4.4984097 50.12,4.04 51.842404,2.8074676 53.884343,2.0990397 56,2 Z"
         fill="#ffeb3a" />
      <path
         id="path25"
         d="m 46.6,46.4 -1.3,1.3 c -0.739409,0.74317 -1.928016,0.786869 -2.72,0.1 -0.37,-0.32 -0.8,-0.7 -1.26,-1.12 l 4.23,-4.23 c 0.32,0.36 0.69,0.74 1.07,1.14 0.759557,0.785868 0.750666,2.035023 -0.02,2.81 z"
         fill="#ef314c" />
      <path
         id="path27"
         d="m 16.68,47.68 c -0.46,0.42 -0.89,0.8 -1.26,1.12 -0.791984,0.686869 -1.980591,0.64317 -2.72,-0.1 l -1.3,-1.3 c -0.770666,-0.774977 -0.779557,-2.024132 -0.02,-2.81 0.38,-0.4 0.75,-0.78 1.07,-1.14 z"
         fill="#ef314c" />
      <g
         fill="#000000"
         id="g66">
        <path
           id="Shape"
           d="m 53.925,12.325 c 1.128879,-0.69192 2.101207,-1.611461 2.855,-2.7 C 57.063308,9.2657516 57.066677,8.7600493 56.7882,8.3970588 56.509682,8.0340682 56.020355,7.9063769 55.6,8.087 55.5047,8.1094339 55.406185,8.1148505 55.309,8.103 56.330863,6.2243055 56.909292,4.1366961 57,2 57,1.4477152 56.552285,1 56,1 53.884214,1.0903192 51.830011,1.7389422 50.046,2.88 48.171392,1.9766938 46.011482,1.868518 44.056,2.58 43.107733,2.9390224 42.296202,3.5868487 41.736,4.432 41.197724,4.1578325 40.603993,4.0100836 40,4 c -0.35928,-2.616e-4 -0.71367,0.083285 -1.035,0.244 -1.516122,-0.7823927 -3.28581,-0.9124106 -4.9,-0.36 -3.789,1.344 -6.166,6.186 -7.992,10.744 -0.439,1.1 -0.986,1.724 -1.626,1.857 -1.038,0.216 -2.329,-0.789 -2.738,-1.192 C 21.423196,15.005658 20.992222,14.919231 20.617726,15.074157 20.24323,15.229083 19.999273,15.594723 20,16 c -0.04949,1.84782 0.331551,3.681821 1.113,5.357 -1.658537,0.599787 -3.161907,1.562969 -4.4,2.819 C 15.588027,22.729048 13.830978,21.917816 12,22 6.407,22 5,21.765 5,20 4.9999136,19.595604 4.7562725,19.231066 4.3826546,19.076322 4.0090366,18.921578 3.5789942,19.007092 3.293,19.293 1.151656,21.685388 -0.02226106,24.789334 0,28 c 0.05604848,2.769817 1.4880645,5.329747 3.819,6.827 1.6368978,1.0799 3.5601328,1.643877 5.521,1.619 1.274409,-0.0098 2.540024,-0.212084 3.754,-0.6 0.254798,1.319988 0.734438,2.586402 1.418,3.744 -0.888,1.082 -2.138,2.524 -3.851,4.306 -1.1291773,1.180467 -1.1149995,3.044842 0.032,4.208 l 1.3,1.3 c 1.111785,1.112586 2.894096,1.177611 4.084,0.149 1.716219,-1.487223 3.345885,-3.071482 4.881,-4.745 2.255769,0.820542 4.641847,1.224434 7.042,1.192 3.141786,0.05831 6.242957,-0.716634 8.988,-2.246 1.549959,1.694554 3.197423,3.297274 4.934,4.8 1.189904,1.028611 2.972215,0.963586 4.084,-0.149 l 1.3,-1.3 c 1.147122,-1.163498 1.161299,-3.028195 0.032,-4.209 -2.1,-2.188 -3.525,-3.878 -4.4,-4.987 0.96987,-1.560511 1.742435,-3.235296 2.3,-4.986 1.162817,0.289045 2.355823,0.439094 3.554,0.447 2.05961,0.01967 4.088848,-0.497287 5.888,-1.5 2.840657,-1.451632 4.792725,-4.199762 5.228,-7.36 0.403754,-3.362525 -0.687321,-6.732976 -2.985,-9.221 -0.951,-0.944 -2.003,-1.983 -2.998,-2.964 z M 53.688,6.884 C 53.38519,6.4660156 53.120146,6.0219336 52.896,5.557 52.630709,5.0290884 52.2796,4.5488912 51.857,4.136 c 0.9606,-0.497416 1.99307,-0.8415726 3.06,-1.02 -0.215361,1.3112652 -0.62981,2.5819273 -1.229,3.768 z m -8.9,-2.446 c 1.595232,-0.5472987 3.349003,-0.3800126 4.812,0.459 0.639113,0.3588148 1.160228,0.8955635 1.5,1.545 0.506288,1.1325918 1.269047,2.1319157 2.228,2.919 0.213315,0.1610098 0.441713,0.3009957 0.682,0.418 -0.610881,0.583997 -1.335171,1.036338 -2.128,1.329 C 49.017,12.126 46.374,10.482 45.902,9.57 45.288794,8.1160616 44.428413,6.779308 43.359,5.619 43.692385,5.0768345 44.196979,4.6612655 44.793,4.438 Z m -6.748,8.715 c 0.134,2.834 0.414,8.73 -2.771,11.824 -1.320314,1.214678 -3.023336,1.930195 -4.815,2.023 0.196381,-0.339614 0.341927,-0.706176 0.432,-1.088 1.081752,-0.177741 2.063689,-0.738088 2.767,-1.579 1.5,-1.774 1.964,-4.711 1.333,-8.5 -0.382,-2.29 -0.165,-3.945 0.647,-4.918 0.472744,-0.536219 1.119904,-0.88796 1.827,-0.993 0.009,0.081 0.011,0.166 0.021,0.247 0.08642,0.722678 0.262443,1.431794 0.524,2.111 0.007,0.25 0.019,0.534 0.035,0.873 z m -13.2,5.292 c 1.342,-0.276 2.38,-1.31 3.085,-3.073 1,-2.508 3.356,-8.38 6.8,-9.6 0.952579,-0.3275071 1.992175,-0.2944194 2.922,0.093 -0.205259,0.6702576 -0.306437,1.3680469 -0.3,2.069 -1.255878,0.1452694 -2.413035,0.7518236 -3.247,1.702 -1.2,1.441 -1.568,3.637 -1.084,6.529 0.523,3.14 0.208,5.581 -0.887,6.873 C 31.605194,23.669217 30.819896,24.024058 30,24 v 0.017 c -0.03544,-0.0056 -0.07116,-0.0093 -0.107,-0.011 -0.043,0 -4.247,0.407 -6.455,-2.645 -0.690403,-0.996371 -1.133001,-2.143148 -1.291,-3.345 0.826894,0.436015 1.774612,0.58682 2.696,0.429 z M 12,24 c 1.368059,-0.117517 2.681482,0.56333 3.374,1.749 -0.42695,0.588493 -0.803931,1.211665 -1.127,1.863 C 12.911931,26.803588 11.300062,26.58901 9.8,27.02 7.745,27.43 6.116,27.095 5.214,26.073 4.5256311,25.175229 4.2285453,24.037722 4.39,22.918 5.977,23.986 8.762,24 12,24 Z M 4.935,33.167 C 3.1688069,32.029929 2.072169,30.099323 2,28 c -3.355e-4,-1.118893 0.1682302,-2.231426 0.5,-3.3 0.1447452,0.996419 0.5668149,1.932041 1.218,2.7 1.393,1.579 3.691,2.141 6.477,1.585 1.557,-0.309 2.654,-0.1 3.272,0.609 -0.425257,1.366484 -0.624215,2.793308 -0.589,4.224 -3.962,1.388 -6.658,0.213 -7.943,-0.651 z m 8.473,14.827 -1.3,-1.3 c -0.380524,-0.392203 -0.380524,-1.015797 0,-1.408 0.134,-0.139 0.244,-0.261 0.373,-0.4 l 2.752,2.752 -0.461,0.407 c -0.397388,0.344182 -0.993423,0.321897 -1.364,-0.051 z m 32.485,-2.3 -1.3,1.3 c -0.369008,0.370098 -0.960771,0.39363 -1.358,0.054 l -0.461,-0.407 2.752,-2.752 c 0.129,0.135 0.239,0.256 0.373,0.4 0.376275,0.393309 0.373623,1.013922 -0.006,1.404 z M 57.926,24.245 c -0.370018,2.531044 -1.945718,4.724943 -4.226,5.884 -2.729928,1.443231 -5.941518,1.669752 -8.847,0.624 -1.869699,-0.581295 -3.640728,-1.442029 -5.253,-2.553 -0.441828,-0.331371 -1.068629,-0.241828 -1.4,0.2 -0.331371,0.441828 -0.241828,1.068629 0.2,1.4 1.522391,1.058164 3.176787,1.912426 4.921,2.541 -0.434123,1.350808 -1.00754,2.652811 -1.711,3.885 -0.33436,-0.274155 -0.808328,-0.298481 -1.169,-0.06 -0.458942,0.306431 -0.582909,0.926709 -0.277,1.386 1.22318,1.708783 2.557391,3.335291 3.994,4.869 L 41.3,45.289 c -1.630283,-1.504755 -3.135261,-3.13983 -4.5,-4.889 -0.331371,-0.441828 -0.958172,-0.531371 -1.4,-0.2 -0.441828,0.331371 -0.531371,0.958172 -0.2,1.4 0.152,0.2 0.317,0.4 0.477,0.6 -2.368618,1.231449 -5.007863,1.850264 -7.677,1.8 -1.918936,0.02352 -3.829933,-0.250396 -5.665,-0.812 0.156,-0.2 0.317,-0.391 0.465,-0.588 0.214359,-0.285813 0.259956,-0.664273 0.119615,-0.99282 -0.140341,-0.328547 -0.445299,-0.557266 -0.8,-0.6 C 21.764915,40.96444 21.414359,41.114187 21.2,41.4 c -1.364739,1.74917 -2.869717,3.384245 -4.5,4.889 l -2.865,-2.865 c 1.436609,-1.533709 2.77082,-3.160217 3.994,-4.869 0.306518,-0.459501 0.182501,-1.080482 -0.277,-1.387 -0.459501,-0.306518 -1.080482,-0.182501 -1.387,0.277 0,0.006 -0.108,0.159 -0.317,0.444 -0.525976,-1.09136 -0.849551,-2.269105 -0.955,-3.476 -0.13229,-1.578112 0.07433,-3.166269 0.606,-4.658 0.0092,-0.02417 0.01685,-0.04889 0.023,-0.074 0.415707,-1.165525 1.024166,-2.252976 1.8,-3.217 0.127,-0.164 0.272,-0.326 0.407,-0.478 1.225397,-1.368644 2.808445,-2.368136 4.571,-2.886 1.665051,1.786858 3.973891,2.836003 6.415,2.915 -0.292875,0.451167 -0.691842,0.823696 -1.162,1.085 -0.410737,0.196692 -0.636703,0.646057 -0.549654,1.093064 0.08705,0.447007 0.465123,0.778743 0.919654,0.806936 0.465,0.036 0.916,0.054 1.356,0.054 2.714843,0.140708 5.373327,-0.809419 7.384,-2.639 3,-2.911 3.459,-7.519 3.448,-10.888 l 0.179,0.179 c 0.392379,0.378972 1.016085,0.373552 1.401819,-0.01218 0.385733,-0.385734 0.391153,-1.00944 0.01218,-1.401819 L 41.525,14.113 C 40.389774,12.991051 39.664011,11.52051 39.464,9.937 39.42,9.56 39.385,9.17 39.364,8.772 39.198975,7.8593909 39.336993,6.917851 39.757,6.091 39.817905,6.0222579 39.908923,5.9881732 40,6 c 0.569771,0.030138 1.111042,0.258674 1.53,0.646 1.09688,1.0505974 1.961752,2.3191209 2.539,3.724 l 1.175,2.93 c 0.179085,0.452797 0.659813,0.709206 1.135612,0.605706 0.475799,-0.103499 0.806577,-0.536432 0.781388,-1.022706 0.912473,0.355291 1.8828,0.53871 2.862,0.541 0.647609,2.55e-4 1.292564,-0.08276 1.919,-0.247 1.157,1.14 2.433,2.4 3.575,3.53 1.85258,2.047635 2.730743,4.795494 2.409,7.538 z"
           fill-rule="nonzero" />
        <path
           id="path30"
           d="m 54,21 c -0.552285,0 -1,0.447715 -1,1 -0.01129,0.533815 0.195791,1.049112 0.57334,1.42666 C 53.950888,23.804209 54.466185,24.011294 55,24 c 0.560017,0 1.014,-0.453983 1.014,-1.014 0,-0.560017 -0.453983,-1.014 -1.014,-1.014 C 54.984837,21.43068 54.541532,20.999788 54,21 Z" />
        <path
           id="path32"
           d="m 48,18 c -0.552285,0 -1,0.447715 -1,1 0,0.552285 -0.447715,1 -1,1 -0.552285,0 -1,-0.447715 -1,-1 0,-0.552285 -0.447715,-1 -1,-1 -0.552285,0 -1,0.447715 -1,1 0,1.656854 1.343146,3 3,3 1.656854,0 3,-1.343146 3,-3 0,-0.552285 -0.447715,-1 -1,-1 z" />
        <path
           id="path34"
           d="m 55,38 c 0.552285,0 1,-0.447715 1,-1 v -1 c 0,-0.552285 -0.447715,-1 -1,-1 -0.552285,0 -1,0.447715 -1,1 v 1 c 0,0.552285 0.447715,1 1,1 z" />
        <path
           id="path36"
           d="m 58,38 h -1 c -0.552285,0 -1,0.447715 -1,1 0,0.552285 0.447715,1 1,1 h 1 c 0.552285,0 1,-0.447715 1,-1 0,-0.552285 -0.447715,-1 -1,-1 z" />
        <path
           id="path38"
           d="m 53,38 h -1 c -0.552285,0 -1,0.447715 -1,1 0,0.552285 0.447715,1 1,1 h 1 c 0.552285,0 1,-0.447715 1,-1 0,-0.552285 -0.447715,-1 -1,-1 z" />
        <path
           id="path40"
           d="m 54,42 c 0,0.552285 0.447715,1 1,1 0.552285,0 1,-0.447715 1,-1 v -1 c 0,-0.552285 -0.447715,-1 -1,-1 -0.552285,0 -1,0.447715 -1,1 z" />
        <path
           id="path42"
           d="m 5,38 c -0.5522848,0 -1,0.447715 -1,1 v 1 c 0,0.552285 0.4477152,1 1,1 0.5522847,0 1,-0.447715 1,-1 V 39 C 6,38.447715 5.5522847,38 5,38 Z" />
        <path
           id="path44"
           d="M 8,41 H 7 c -0.5522848,0 -1,0.447715 -1,1 0,0.552285 0.4477152,1 1,1 H 8 C 8.5522848,43 9,42.552285 9,42 9,41.447715 8.5522848,41 8,41 Z" />
        <path
           id="path46"
           d="M 4,42 C 4,41.447715 3.5522848,41 3,41 H 2 c -0.5522848,0 -1,0.447715 -1,1 0,0.552285 0.4477152,1 1,1 h 1 c 0.5522848,0 1,-0.447715 1,-1 z" />
        <path
           id="path48"
           d="m 4,45 c 0,0.552285 0.4477152,1 1,1 0.5522847,0 1,-0.447715 1,-1 V 44 C 6,43.447715 5.5522847,43 5,43 4.4477152,43 4,43.447715 4,44 Z" />
        <path
           id="path50"
           d="m 14,12 c -0.552285,0 -1,0.447715 -1,1 v 1 c 0,0.552285 0.447715,1 1,1 0.552285,0 1,-0.447715 1,-1 v -1 c 0,-0.552285 -0.447715,-1 -1,-1 z" />
        <path
           id="path52"
           d="m 16,17 h 1 c 0.552285,0 1,-0.447715 1,-1 0,-0.552285 -0.447715,-1 -1,-1 h -1 c -0.552285,0 -1,0.447715 -1,1 0,0.552285 0.447715,1 1,1 z" />
        <path
           id="path54"
           d="m 12,15 h -1 c -0.552285,0 -1,0.447715 -1,1 0,0.552285 0.447715,1 1,1 h 1 c 0.552285,0 1,-0.447715 1,-1 0,-0.552285 -0.447715,-1 -1,-1 z" />
        <path
           id="path56"
           d="m 13,19 c 0,0.552285 0.447715,1 1,1 0.552285,0 1,-0.447715 1,-1 v -1 c 0,-0.552285 -0.447715,-1 -1,-1 -0.552285,0 -1,0.447715 -1,1 z" />
        <path
           id="path58"
           d="m 24,0 c -0.552285,0 -1,0.44771525 -1,1 v 1 c 0,0.5522848 0.447715,1 1,1 0.552285,0 1,-0.4477152 1,-1 V 1 C 25,0.44771525 24.552285,0 24,0 Z" />
        <path
           id="path60"
           d="m 26,5 h 1 C 27.552285,5 28,4.5522847 28,4 28,3.4477153 27.552285,3 27,3 h -1 c -0.552285,0 -1,0.4477153 -1,1 0,0.5522847 0.447715,1 1,1 z" />
        <path
           id="path62"
           d="m 22,3 h -1 c -0.552285,0 -1,0.4477153 -1,1 0,0.5522847 0.447715,1 1,1 h 1 C 22.552285,5 23,4.5522847 23,4 23,3.4477153 22.552285,3 22,3 Z" />
        <path
           id="path64"
           d="m 23,7 c 0,0.5522847 0.447715,1 1,1 0.552285,0 1,-0.4477153 1,-1 V 6 C 25,5.4477152 24.552285,5 24,5 23.447715,5 23,5.4477152 23,6 Z" />
      </g>
    </g>
  </g>
</svg>
